<?xml version="1.0" encoding="UTF-8"?> <svg xmlns="http://www.w3.org/2000/svg" width="185" height="34" viewBox="0 0 185 34" fill="none"><g clip-path="url(#clip0_482_137)"><path fill-rule="evenodd" clip-rule="evenodd" d="M184.179 12.5873V14.4778H176.852V4.65529H184.036V6.55263H178.95V8.51861H182.92V10.4091H178.95V12.5873H184.179ZM178.354 26.4436L182.475 21.0889H184.028V29.5083H182.236V24.1596L178.115 29.5083H176.557V21.0889H178.354V26.4436ZM172.557 24.1596L168.437 29.5083H166.878V21.0889H168.676V26.4436L172.797 21.0889H174.349V29.5083H172.557V24.1596ZM172.256 4.65529H174.346V14.4778H172.256V4.65529ZM167.653 14.4778H163.676V4.65529H165.773V7.88149H167.653C168.656 7.88149 169.487 8.19763 170.149 8.82974C170.808 9.46285 171.139 10.2466 171.139 11.1832C171.139 12.1196 170.808 12.9025 170.149 13.5326C169.487 14.1629 168.656 14.4778 167.653 14.4778ZM168.629 10.186C168.351 9.91493 168.002 9.77899 167.585 9.77899H165.773V12.5873H167.585C168.002 12.5873 168.351 12.4514 168.629 12.1804C168.909 11.9083 169.049 11.5756 169.049 11.1832C169.049 10.7907 168.909 10.458 168.629 10.186ZM164.773 21.9989C164.97 22.1634 165.111 22.3023 165.196 22.4157L165.331 22.5919L164.192 23.7369C164.169 23.7055 164.137 23.6616 164.096 23.6046C164.055 23.548 163.964 23.4512 163.822 23.314C163.68 23.1771 163.525 23.0569 163.358 22.953C163.19 22.8493 162.97 22.7534 162.698 22.6652C162.426 22.5772 162.148 22.5333 161.864 22.5333C161.081 22.5333 160.428 22.7975 159.902 23.3259C159.377 23.8543 159.114 24.5118 159.114 25.2986C159.114 26.0853 159.377 26.743 159.902 27.2714C160.428 27.7998 161.081 28.064 161.864 28.064C162.167 28.064 162.458 28.0219 162.736 27.9377C163.014 27.8536 163.245 27.7537 163.428 27.6383C163.611 27.5229 163.772 27.4063 163.912 27.2889C164.052 27.1715 164.153 27.0698 164.216 26.9836L164.309 26.8604L165.389 28.0052C165.358 28.0521 165.31 28.1139 165.246 28.1903C165.182 28.2666 165.04 28.4015 164.82 28.5952C164.6 28.7891 164.365 28.9593 164.113 29.1061C163.863 29.2529 163.534 29.387 163.127 29.5083C162.721 29.6297 162.299 29.6903 161.864 29.6903C160.587 29.6903 159.51 29.2608 158.633 28.4015C157.755 27.5424 157.317 26.508 157.317 25.2986C157.317 24.0891 157.755 23.0559 158.633 22.1986C159.51 21.3414 160.587 20.9127 161.864 20.9127C162.303 20.9127 162.721 20.9705 163.118 21.086C163.515 21.2014 163.841 21.3414 164.096 21.5057C164.351 21.6702 164.577 21.8346 164.773 21.9989ZM159.079 10.4776H154.898V14.4778H152.801V4.65529H154.898V8.58708H159.079V4.65529H161.17V14.4778H159.079V10.4776ZM154.274 21.086C154.671 21.2014 154.997 21.3414 155.251 21.5057C155.506 21.6702 155.732 21.8346 155.928 21.9989C156.125 22.1634 156.266 22.3023 156.352 22.4157L156.486 22.5919L155.348 23.7369C155.324 23.7055 155.292 23.6616 155.251 23.6046C155.21 23.548 155.119 23.4512 154.977 23.314C154.835 23.1771 154.68 23.0569 154.513 22.953C154.346 22.8493 154.126 22.7534 153.854 22.6652C153.581 22.5772 153.303 22.5333 153.019 22.5333C152.237 22.5333 151.583 22.7975 151.058 23.3259C150.532 23.8543 150.27 24.5118 150.27 25.2986C150.27 26.0853 150.532 26.743 151.058 27.2714C151.583 27.7998 152.237 28.064 153.019 28.064C153.322 28.064 153.613 28.0219 153.891 27.9377C154.17 27.8536 154.4 27.7537 154.583 27.6383C154.766 27.5229 154.927 27.4063 155.067 27.2889C155.208 27.1715 155.309 27.0698 155.371 26.9836L155.464 26.8604L156.544 28.0052C156.513 28.0521 156.465 28.1139 156.401 28.1903C156.337 28.2666 156.195 28.4015 155.975 28.5952C155.755 28.7891 155.52 28.9593 155.269 29.1061C155.018 29.2529 154.689 29.387 154.283 29.5083C153.876 29.6297 153.455 29.6903 153.019 29.6903C151.743 29.6903 150.666 29.2608 149.788 28.4015C148.911 27.5424 148.472 26.508 148.472 25.2986C148.472 24.0891 148.911 23.0559 149.788 22.1986C150.666 21.3414 151.743 20.9127 153.019 20.9127C153.459 20.9127 153.877 20.9705 154.274 21.086ZM147.435 14.4778H143.322V4.65529H145.419V7.88149H147.435C148.438 7.88149 149.27 8.19763 149.931 8.82974C150.591 9.46285 150.921 10.2466 150.921 11.1832C150.921 12.1196 150.591 12.9025 149.931 13.5326C149.27 14.1629 148.438 14.4778 147.435 14.4778ZM148.412 10.186C148.133 9.91493 147.784 9.77899 147.367 9.77899H145.419V12.5873H147.367C147.784 12.5873 148.133 12.4514 148.412 12.1804C148.692 11.9083 148.831 11.5756 148.831 11.1832C148.831 10.7907 148.692 10.458 148.412 10.186ZM145.906 22.1986C146.783 23.0559 147.222 24.0891 147.222 25.2986C147.222 26.508 146.783 27.5424 145.906 28.4015C145.028 29.2608 143.952 29.6903 142.678 29.6903C141.404 29.6903 140.328 29.2608 139.45 28.4015C138.573 27.5424 138.134 26.508 138.134 25.2986C138.134 24.0891 138.573 23.0559 139.45 22.1986C140.328 21.3414 141.404 20.9127 142.678 20.9127C143.952 20.9127 145.028 21.3414 145.906 22.1986ZM142.678 22.5333C141.929 22.5333 141.294 22.8003 140.772 23.3346C140.251 23.869 139.99 24.5245 139.99 25.3016C139.99 26.0785 140.251 26.7331 140.772 27.2655C141.294 27.7978 141.929 28.064 142.678 28.064C143.427 28.064 144.062 27.7978 144.584 27.2655C145.105 26.7331 145.366 26.0785 145.366 25.3016C145.366 24.5245 145.105 23.869 144.584 23.3346C144.062 22.8003 143.427 22.5333 142.678 22.5333ZM138.726 6.55263H135.866V7.67607C135.866 9.0597 135.79 10.2212 135.637 11.1586C135.485 12.098 135.261 12.8183 134.964 13.3203C134.666 13.8222 134.333 14.1766 133.966 14.382C133.598 14.5874 133.162 14.6903 132.658 14.6903C132.454 14.6903 132.248 14.6687 132.038 14.6246C131.829 14.5817 131.676 14.5415 131.575 14.5052L131.405 14.4504V12.4436C131.637 12.5346 131.868 12.5823 132.1 12.5873C132.463 12.5873 132.757 12.4768 132.981 12.2547C133.207 12.0336 133.395 11.5521 133.547 10.8102C133.699 10.0676 133.775 9.02747 133.775 7.68976V4.65529H140.816V14.4778H138.726V6.55263ZM128.198 12.1627H124.432L123.595 14.4778H121.361L125.202 4.65529H127.429L131.269 14.4778H129.035L128.198 12.1627ZM126.318 7.11427L125.127 10.3406H127.503L126.318 7.11427ZM122.843 20.9127C123.761 20.9127 124.499 21.1447 125.058 21.6084C125.616 22.0724 125.895 22.6213 125.895 23.2554C125.895 23.5215 125.852 23.7643 125.764 23.9834C125.676 24.2027 125.57 24.3749 125.446 24.5001C125.321 24.6254 125.2 24.7339 125.081 24.8259C124.962 24.918 124.858 24.9796 124.769 25.011L124.64 25.0579C124.679 25.0736 124.735 25.096 124.807 25.1254C124.879 25.1548 125.004 25.2271 125.183 25.3427C125.362 25.4581 125.519 25.5883 125.653 25.7331C125.787 25.8779 125.911 26.0785 126.024 26.3348C126.137 26.5912 126.193 26.8682 126.193 27.1657C126.193 27.8703 125.894 28.4671 125.297 28.9565C124.7 29.4456 123.882 29.6903 122.843 29.6903C122.446 29.6903 122.06 29.6404 121.684 29.5406C121.309 29.4408 120.998 29.3204 120.753 29.1794C120.508 29.0386 120.291 28.8977 120.102 28.7567C119.914 28.6158 119.776 28.4984 119.691 28.4045L119.557 28.246L120.636 27.1657L120.73 27.2595C120.769 27.2988 120.856 27.3711 120.992 27.4768C121.129 27.5825 121.273 27.6745 121.424 27.7529C121.576 27.831 121.769 27.9025 122.002 27.9671C122.236 28.0316 122.477 28.064 122.726 28.064C123.22 28.064 123.602 27.9603 123.873 27.7529C124.143 27.5453 124.279 27.2889 124.279 26.9836C124.279 26.6705 124.153 26.4122 123.902 26.2086C123.651 26.0052 123.278 25.9033 122.784 25.9033H121.71V24.3358H122.726C123.131 24.3358 123.441 24.2516 123.657 24.0833C123.873 23.9149 123.981 23.6997 123.981 23.4373C123.981 23.1791 123.867 22.9638 123.64 22.7915C123.412 22.6193 123.088 22.5333 122.668 22.5333C122.364 22.5333 122.068 22.5979 121.78 22.727C121.493 22.8561 121.282 22.9834 121.15 23.1086L120.934 23.314L119.854 22.1751C119.878 22.1437 119.917 22.0998 119.974 22.043C120.03 21.9862 120.152 21.8835 120.339 21.7347C120.526 21.5861 120.725 21.4578 120.937 21.3501C121.149 21.2425 121.428 21.1427 121.775 21.0508C122.121 20.9588 122.477 20.9127 122.843 20.9127ZM117.881 8.23771L113.074 14.4778H111.256V4.65529H113.353V10.9023L118.161 4.65529H119.972V14.4778H117.881V8.23771ZM112.076 21.494C112.323 21.3454 112.646 21.2113 113.045 21.0919C113.443 20.9725 113.863 20.9127 114.303 20.9127C115.587 20.9127 116.665 21.3414 117.536 22.1986C118.408 23.0559 118.844 24.0891 118.844 25.2986C118.844 26.508 118.405 27.5424 117.527 28.4015C116.65 29.2608 115.575 29.6903 114.303 29.6903C113.863 29.6903 113.442 29.6317 113.039 29.5141C112.636 29.3967 112.303 29.2559 112.041 29.0914C111.778 28.9271 111.548 28.7626 111.349 28.5982C111.151 28.4339 111.007 28.2968 110.917 28.1872L110.771 28.0052L111.851 26.8604C111.874 26.8916 111.907 26.9357 111.95 26.9925C111.993 27.0493 112.092 27.1461 112.248 27.2831C112.404 27.42 112.567 27.5404 112.738 27.6441C112.91 27.7479 113.137 27.8437 113.421 27.9319C113.705 28.0199 113.999 28.064 114.303 28.064C114.987 28.064 115.556 27.8781 116.01 27.5062C116.463 27.1343 116.77 26.6588 116.929 26.0795H113.223V24.459H116.929C116.77 23.9149 116.455 23.458 115.986 23.0881C115.517 22.7182 114.956 22.5333 114.303 22.5333C114.014 22.5333 113.737 22.5754 113.471 22.6596C113.204 22.7437 112.983 22.8444 112.808 22.9618C112.633 23.0792 112.479 23.1956 112.347 23.3112C112.215 23.4266 112.122 23.5275 112.067 23.6135L111.968 23.7369L110.835 22.5919C110.867 22.545 110.912 22.4834 110.973 22.407C111.033 22.3307 111.17 22.1966 111.384 22.0049C111.598 21.813 111.829 21.6427 112.076 21.494ZM105.456 29.6903C104.182 29.6903 103.106 29.2608 102.228 28.4015C101.351 27.5424 100.912 26.508 100.912 25.2986C100.912 24.0891 101.351 23.0559 102.228 22.1986C103.106 21.3414 104.182 20.9127 105.456 20.9127C106.73 20.9127 107.806 21.3414 108.684 22.1986C109.561 23.0559 110 24.0891 110 25.2986C110 26.508 109.561 27.5424 108.684 28.4015C107.806 29.2608 106.73 29.6903 105.456 29.6903ZM107.362 23.3346C106.84 22.8003 106.205 22.5333 105.456 22.5333C104.707 22.5333 104.072 22.8003 103.55 23.3346C103.029 23.869 102.768 24.5245 102.768 25.3016C102.768 26.0785 103.029 26.7331 103.55 27.2655C104.072 27.7978 104.707 28.064 105.456 28.064C106.205 28.064 106.84 27.7978 107.362 27.2655C107.883 26.7331 108.144 26.0785 108.144 25.3016C108.144 24.5245 107.883 23.869 107.362 23.3346ZM105.89 11.2516H103.874V14.4778H101.777V4.65529H105.89C106.893 4.65529 107.724 4.97126 108.386 5.60454C109.046 6.23649 109.376 7.01941 109.376 7.95296C109.376 8.88735 109.048 9.67027 108.389 10.3034C107.73 10.9355 106.898 11.2516 105.89 11.2516ZM106.866 6.96079C106.588 6.68874 106.239 6.55263 105.822 6.55263H103.874V9.3543H105.822C106.239 9.3543 106.588 9.21919 106.866 8.94998C107.147 8.68094 107.286 8.34927 107.286 7.9568C107.286 7.56451 107.147 7.23184 106.866 6.96079ZM97.4596 14.4778H95.369V6.55263H92.577V4.65529H100.245V6.55263H97.4596V14.4778ZM87.7696 12.7928C88.1235 12.7928 88.4632 12.744 88.788 12.646C89.1119 12.5473 89.3813 12.4309 89.5945 12.2958C89.8075 12.1616 89.9963 12.0257 90.1597 11.8888C90.323 11.7517 90.4407 11.6332 90.5138 11.5325L90.6227 11.3886L91.8825 12.7243C91.8465 12.7791 91.79 12.8515 91.7161 12.9396C91.6403 13.0296 91.4749 13.1862 91.2181 13.4132C90.9622 13.6383 90.687 13.8379 90.3951 14.0082C90.1014 14.1804 89.718 14.3359 89.2434 14.4778C88.7695 14.6198 88.2783 14.6903 87.7696 14.6903C86.2802 14.6903 85.0242 14.1893 84 13.1862C82.9765 12.1842 82.465 10.9776 82.465 9.56656C82.465 8.15554 82.9765 6.94993 84 5.94991C85.0242 4.94972 86.2802 4.44971 87.7696 4.44971C88.2821 4.44971 88.7705 4.51734 89.2336 4.65128C89.6966 4.78639 90.077 4.94972 90.3737 5.14161C90.6713 5.3335 90.935 5.52522 91.1636 5.71694C91.3932 5.90883 91.5576 6.07116 91.6579 6.20326L91.8144 6.40884L90.4866 7.74454C90.4593 7.7083 90.4223 7.65636 90.3737 7.5909C90.327 7.52443 90.2199 7.41087 90.0546 7.25138C89.8882 7.09172 89.7084 6.95094 89.5128 6.82952C89.3173 6.70928 89.0614 6.59672 88.7433 6.49485C88.4252 6.39114 88.1013 6.3402 87.7696 6.3402C86.857 6.3402 86.0944 6.64866 85.4814 7.26507C84.8686 7.88149 84.5622 8.6487 84.5622 9.56656C84.5622 10.4844 84.8686 11.2516 85.4814 11.8681C86.0944 12.4846 86.857 12.7928 87.7696 12.7928ZM77.5075 13.9573C76.9676 14.3957 76.2973 14.6149 75.4986 14.6149C75.3128 14.6149 75.126 14.5962 74.9403 14.5602C74.7545 14.5238 74.6154 14.4867 74.5249 14.4504L74.3819 14.4094V12.5873C74.6134 12.6784 74.8926 12.7243 75.2195 12.7243C75.919 12.7243 76.4539 12.3975 76.8265 11.7448L77.1057 11.2516L73.6192 4.65529H75.8459L78.1477 9.28566L80.1019 4.65529H82.3355L78.917 12.0257C78.5172 12.8749 78.0474 13.5189 77.5075 13.9573ZM72.5439 24.5764L75.8883 29.5083H73.7987L71.3472 25.9033L70.2733 27.101V29.5083H68.4756V21.0889H70.2733V24.7585L73.5594 21.0889H75.649L72.5439 24.5764ZM70.9703 14.4778H65.1141V16.5123H63.0236V12.5873H63.5819C63.6179 12.5511 63.6714 12.4925 63.7414 12.4132C63.8125 12.3328 63.936 12.15 64.113 11.8652C64.29 11.5795 64.4457 11.2653 64.58 10.9228C64.7134 10.5803 64.8359 10.1165 64.9478 9.53233C65.0585 8.94814 65.1141 8.32872 65.1141 7.67607V4.65529H71.876V12.5873H73.0677V16.5123H70.9703V14.4778ZM69.7855 6.55263H67.2045V7.67607C67.2045 8.32872 67.1511 8.94531 67.0452 9.52548C66.9381 10.1058 66.8106 10.5736 66.6638 10.9297C66.5159 11.2859 66.367 11.5942 66.2172 11.8544C66.0674 12.1147 65.9429 12.3016 65.8426 12.416L65.6725 12.5873H69.7855V6.55263ZM59.68 10.4776H55.499V14.4778H53.4017V4.65529H55.499V8.58708H59.68V4.65529H61.7706V14.4778H59.68V10.4776ZM48.8051 8.23771L43.9976 14.4778H42.1794V4.65529H44.2768V10.9023L49.0844 4.65529H50.8957V14.4778H48.8051V8.23771ZM49.2979 29.5083H47.506V22.7152H43.9806V29.5083H42.1829V21.0889H49.2979V29.5083ZM55.7489 21.0889L59.0408 29.5083H57.1264L56.4085 27.5237H53.1808L52.4628 29.5083H50.5484L53.8403 21.0889H55.7489ZM55.8131 25.9621L54.7976 23.1966L53.7762 25.9621H55.8131ZM65.956 21.902C66.5222 22.4441 66.8053 23.1155 66.8053 23.9159C66.8053 24.7164 66.5232 25.3876 65.9589 25.9298C65.3947 26.4719 64.6806 26.743 63.8168 26.743H62.0892V29.5083H60.2915V21.0889H63.8168C64.6768 21.0889 65.3899 21.3599 65.956 21.902ZM62.0892 22.7152V25.1165H63.7585C64.1165 25.1165 64.415 25.0011 64.6544 24.7702C64.8937 24.5392 65.0134 24.2555 65.0134 23.9188C65.0134 23.5823 64.8937 23.2975 64.6544 23.0645C64.415 22.8317 64.1165 22.7152 63.7585 22.7152H62.0892ZM78.8202 26.4436L82.9411 21.0889H84.4936V29.5083H82.7017V24.1596L78.581 29.5083H77.0225V21.0889H78.8202V26.4436ZM91.0046 26.4436L95.1249 21.0889H96.6774V29.5083H94.8855V24.1596L90.7653 29.5083H89.2068V21.0889H91.0046V26.4436ZM136.092 21.902C136.658 22.4441 136.942 23.1155 136.942 23.9159C136.942 24.7164 136.659 25.3876 136.095 25.9298C135.531 26.4719 134.817 26.743 133.953 26.743H132.225V29.5083H130.428V21.0889H133.953C134.813 21.0889 135.526 21.3599 136.092 21.902ZM132.225 22.7152V25.1165H133.895C134.253 25.1165 134.551 25.0011 134.791 24.7702C135.03 24.5392 135.149 24.2555 135.149 23.9188C135.149 23.5823 135.03 23.2975 134.791 23.0645C134.551 22.8317 134.253 22.7152 133.895 22.7152H132.225Z" fill="black"></path><path d="M31.3158 15.4545L34 14.1989C33.8012 13.0398 33.5029 11.8807 33.1053 10.8182L30.1228 11.0114C29.7251 10.142 29.2281 9.36932 28.731 8.5L30.4211 6.08523C29.7251 5.11932 28.8304 4.34659 27.9357 3.57386L25.4503 5.21591C24.655 4.82955 23.8596 4.25 22.9649 3.86364L23.1637 0.965909C22.0702 0.579545 20.9766 0.289773 19.7836 0L18.4912 2.70455C17.4971 2.60795 16.5029 2.60795 15.6082 2.70455L14.2164 0C13.0234 0.193182 11.9298 0.482955 10.8363 0.869318L11.0351 3.86364C10.1404 4.25 9.34503 4.73295 8.54971 5.3125L6.16374 3.57386C5.26901 4.34659 4.37427 5.11932 3.67836 6.08523L5.36842 8.59659C4.77193 9.36932 4.27485 10.2386 3.97661 11.108L0.994152 10.9148C0.596491 11.9773 0.298246 13.1364 0.0994152 14.2955L2.78363 15.4545C2.68421 16.4205 2.68421 17.3864 2.78363 18.3523L0 19.608C0.19883 20.767 0.497076 21.9261 0.894737 22.9886L3.87719 22.7955C4.27485 23.6648 4.77193 24.4375 5.26901 25.3068L3.57895 27.8182C4.27485 28.7841 5.16959 29.5568 6.06433 30.3295L8.54971 28.6875C9.34503 29.267 10.1404 29.75 11.0351 30.1364L10.8363 33.1307C11.9298 33.517 13.0234 33.8068 14.2164 34L15.5088 31.2955C16.5029 31.392 17.4971 31.392 18.3918 31.2955L19.6842 34C20.8772 33.8068 21.9708 33.517 23.0643 33.1307L22.8655 29.9432C23.7602 29.5568 24.5556 29.0739 25.3509 28.4943L27.8363 30.1364C28.731 29.3636 29.5263 28.5909 30.3216 27.625L28.6316 25.1136C29.2281 24.3409 29.7251 23.4716 30.0234 22.6023L33.0058 22.7955C33.4035 21.733 33.7018 20.5739 33.9006 19.4148L31.3158 18.3523C31.3158 17.3864 31.3158 16.4205 31.3158 15.4545ZM26.345 17.8693L28.0351 18.7386C27.9357 19.5114 27.7368 20.2841 27.4386 20.9602L25.4503 20.8636C25.152 21.4432 24.8538 22.0227 24.5556 22.5057L25.6491 24.1477C25.152 24.7273 24.655 25.3068 24.0585 25.7898L22.4678 24.7273C21.9708 25.017 21.3743 25.4034 20.7778 25.6932L20.8772 27.625C20.1813 27.9148 19.386 28.108 18.5906 28.2045L17.8947 26.1761C17.2982 26.2727 16.6023 26.2727 16.0058 26.1761L15.2105 28.0114C14.4152 27.9148 13.7193 27.7216 13.0234 27.4318L13.1228 25.5C12.5263 25.2102 12.0292 24.9205 11.4327 24.5341L9.8421 25.5966C9.24561 25.1136 8.74854 24.5341 8.25146 23.9545L9.34503 22.3125C9.04678 21.8295 8.64912 21.25 8.45029 20.6705L6.46199 20.767C6.16374 20.0909 5.96491 19.3182 5.8655 18.5455L7.65497 17.6761C7.55555 17 7.55555 16.4205 7.65497 15.7443L5.8655 14.875C5.96491 14.2955 6.16374 13.5227 6.46199 12.8466L8.45029 12.9432C8.74854 12.3636 9.04678 11.7841 9.34503 11.3011L8.25146 9.65909C8.74854 9.07955 9.24561 8.59659 9.8421 8.01705L11.4327 9.07955C11.9298 8.78977 12.5263 8.40341 13.1228 8.11364L13.0234 6.18182C13.7193 5.89205 14.5146 5.69886 15.3099 5.60227L16.2047 7.34091C16.8012 7.24432 17.4971 7.24432 18.0936 7.34091L18.7895 5.79545C19.5848 5.89205 20.2807 6.08523 20.9766 6.375L20.8772 8.30682C21.4737 8.59659 21.9708 8.88636 22.5673 9.27273L24.1579 8.21023C24.7544 8.69318 25.2515 9.27273 25.7485 9.85227L24.655 11.4943C24.9532 11.9773 25.3509 12.5568 25.5497 13.1364L27.538 13.0398C27.8363 13.7159 28.0351 14.4886 28.1345 15.2614L26.345 16.1307C26.4444 16.6136 26.4444 17.1932 26.345 17.8693Z" fill="black"></path><path d="M23.1637 16.3239L24.2573 15.7443C24.1579 15.2614 24.0584 14.7784 23.8596 14.2955L22.5672 14.392C22.3684 14.0057 22.1696 13.7159 21.9707 13.3295L22.6666 12.267C22.3684 11.8807 21.9707 11.4943 21.5731 11.2045L20.4795 11.8807C20.1812 11.5909 19.7836 11.3977 19.3859 11.2045L19.4853 9.94886C18.9883 9.75568 18.4912 9.65909 18.0935 9.5625L17.497 10.7216C17.0994 10.7216 16.6023 10.7216 16.3041 10.7216L15.807 9.65909C15.3099 9.75568 14.8128 9.85227 14.4152 10.0455L14.5146 11.3011C14.1169 11.4943 13.8187 11.6875 13.421 11.9773L12.3274 11.3011C11.9298 11.5909 11.5321 11.9773 11.2339 12.3636L11.9298 13.4261C11.6315 13.7159 11.4327 14.1023 11.3333 14.4886L10.0409 14.392C9.84207 14.875 9.74265 15.358 9.64324 15.8409L10.7368 16.4205C10.7368 16.8068 10.7368 17.2898 10.7368 17.6761L9.54382 18.2557C9.64324 18.7386 9.74265 19.2216 9.94148 19.7045L11.2339 19.608C11.4327 19.9943 11.6315 20.2841 11.8304 20.6705L11.1345 21.733C11.4327 22.1193 11.8304 22.5057 12.228 22.7955L13.3216 22.1193C13.6198 22.4091 14.0175 22.6023 14.4152 22.7955L14.3158 24.0511C14.8128 24.2443 15.3099 24.3409 15.7076 24.4375L16.3041 23.2784C16.7017 23.2784 17.1988 23.2784 17.497 23.2784L18.0935 24.4375C18.5906 24.3409 19.0877 24.2443 19.4853 24.0511L19.3859 22.7955C19.7836 22.6023 20.0818 22.4091 20.4795 22.1193L21.5731 22.7955C21.9707 22.5057 22.3684 22.1193 22.6666 21.733L22.0701 20.767C22.3684 20.4773 22.5672 20.0909 22.6666 19.7045L23.959 19.8011C24.1579 19.3182 24.2573 18.8352 24.3567 18.3523L23.2631 17.7727C23.1637 17.0966 23.1637 16.7102 23.1637 16.3239ZM17 19.5114C15.5087 19.5114 14.3158 18.3523 14.3158 16.9034C14.3158 15.4545 15.5087 14.2955 17 14.2955C18.4912 14.2955 19.6842 15.4545 19.6842 16.9034C19.6842 18.3523 18.4912 19.5114 17 19.5114Z" fill="black"></path></g><defs><clipPath id="clip0_482_137"><rect width="185" height="34" fill="white"></rect></clipPath></defs></svg> 