<?xml version="1.0" encoding="UTF-8"?>
<svg xmlns="http://www.w3.org/2000/svg" width="246" height="112" viewBox="0 0 246 112" fill="none">
  <g transform="translate(50 8) scale(1.42)">
    <path d="M109.632 32.0887V12.6679H113.674V0H101.597V8.87246H93.4642V12.6186H89.4716V5.07702H69.3114V16.4141H61.2769V20.2095H53.0945V8.87246H24.8505V1.33087H0.648438V12.6186H8.68294V27.6525H0.648438V50.2773H4.64105V57.8189H12.7248V50.2773H24.8012V46.5311H36.9269V54.0727H61.129V57.8189H73.2547V54.0234H89.4223V65.3112H101.499L101.548 42.6864H109.583V50.228H117.666V32.0887H109.632Z" fill="#6AA9DC"></path>
  </g>
  <g transform="translate(0 43) scale(1.5)">
    <path d="M0 19.7361V0.906738H16.414V19.7361H12.3721V4.70218H4.0419V19.7361H0Z" fill="#1B1C1C"></path><path d="M19.9141 19.7361V0.906738H28.6386C30.8568 0.906738 32.6805 1.54754 34.0607 2.77982C35.4409 4.0614 36.131 5.58943 36.131 7.46251C36.131 9.33558 35.4409 10.9129 34.0607 12.1452C32.6805 13.4268 30.8568 14.0183 28.6386 14.0183H23.956V19.6868H19.9141V19.7361ZM23.956 10.3707H28.5401C29.6738 10.3707 30.5117 10.1242 31.1032 9.58203C31.6947 9.03983 32.0398 8.39904 32.0398 7.56108C32.0398 6.72313 31.744 6.03304 31.1032 5.54013C30.5117 4.99792 29.6245 4.75148 28.5401 4.75148H23.956V10.3707Z" fill="#1B1C1C"></path><path d="M40.9106 17.4186C38.939 15.4963 37.9531 13.1303 37.9531 10.37C37.9531 7.60964 38.939 5.24364 40.9106 3.32128C42.8823 1.39891 45.3468 0.413086 48.3043 0.413086C51.2618 0.413086 53.7264 1.39891 55.698 3.32128C57.6697 5.24364 58.6555 7.60964 58.6555 10.37C58.6555 13.1303 57.6697 15.4963 55.698 17.4186C53.7264 19.341 51.2618 20.3268 48.3043 20.3268C45.3468 20.2775 42.8823 19.341 40.9106 17.4186ZM43.9174 5.88444C42.7837 7.01814 42.1922 8.54618 42.1922 10.3207C42.1922 12.0952 42.7837 13.6232 43.9174 14.7569C45.0511 15.8906 46.4806 16.4821 48.255 16.4821C50.0295 16.4821 51.459 15.8906 52.5927 14.7569C53.7264 13.6232 54.3179 12.0952 54.3179 10.3207C54.3179 8.54618 53.7264 7.01814 52.5927 5.88444C51.459 4.75074 50.0295 4.15924 48.255 4.15924C46.5298 4.15924 45.0511 4.75074 43.9174 5.88444Z" fill="#1B1C1C"></path><path d="M61.3203 19.7361V0.906738H67.3832L71.9673 11.6523H72.6573L77.2414 0.906738H83.3043V19.7361H79.2131V7.75824L79.4596 5.34297H79.2131L74.9247 15.4477H69.6999L65.4115 5.34297H65.165L65.4115 7.75824V19.7361H61.3203Z" fill="#1B1C1C"></path><path d="M86.6016 19.7361V0.906738H103.016V19.7361H98.9737V4.70218H90.6435V19.7361H86.6016Z" fill="#1B1C1C"></path><path d="M104.891 19.7361L109.721 0.906738H118.199L123.03 19.7361H118.988L115.094 4.70218H112.827L108.933 19.7361H104.891Z" fill="#1B1C1C"></path><path d="M123.281 19.7361L128.26 0.906738H136.738L141.716 19.7361H137.526L136.442 15.5463H128.506L127.422 19.7361H123.281ZM129.492 11.8494H135.555L133.682 4.70218H131.414L129.492 11.8494Z" fill="#1B1C1C"></path><path d="M143.586 19.7361V0.906738H147.628V8.30045H155.958V0.906738H160V19.7361H155.958V12.0959H147.628V19.7361H143.586Z" fill="#1B1C1C"></path>
  </g>
</svg>
