<?xml version="1.0" encoding="UTF-8"?> <svg xmlns="http://www.w3.org/2000/svg" xmlns:xlink="http://www.w3.org/1999/xlink" id="Layer_1" data-name="Layer 1" viewBox="0 0 445.13 154.37"><defs><style> .cls-1 { fill: none; } .cls-2 { fill: url(#linear-gradient-2); } .cls-3 { fill: url(#linear-gradient); } .cls-4 { fill: #1d1d1b; } .cls-5 { clip-path: url(#clippath-1); } .cls-6 { clip-path: url(#clippath); } </style><clipPath id="clippath"><path class="cls-1" d="M95.78,145.28c.1,0,.2,0,.25-.07-.08.02-.17.04-.25.07M76.65,147.89c16.03.17,29.28-6.26,30.21-6.73.31-.15,2.14-1.05,2.45-1.21-13.2,3.87-48.79,7.84-73.52-4.99,11.56,8.14,24.9,12.76,40.86,12.92M5.61,76.85c0,8.94,1.66,17.5,4.67,25.39,4.38,7.19,11.73,14.21,25.01,20.78,20.26,9.9,51.49,13.14,68.34,14.85,4.54.42,6.73.72,7.9.88,1.59-.9,3.14-1.85,4.65-2.86,3.13-6.37-11.21-11.37-33.42-18.12C45.1,106.43,6.6,91.88,7.08,62.4c-.97,4.67-1.47,9.5-1.47,14.45M16.27,39.42c-9.84,26.25,31.8,42.43,66.33,55.77,22.2,8.55,51.66,20,39.73,36.06,5.04-4.24,9.48-9.16,13.18-14.62,11.84-28.47-41.62-48.77-64.66-57.62-22.99-8.66-50.45-19.19-43.82-32.99-4.1,4-7.73,8.5-10.76,13.4"></path></clipPath><linearGradient id="linear-gradient" x1="-39.08" y1="1175.93" x2="-38.49" y2="1175.93" gradientTransform="translate(4588.78 137629.9) scale(116.96 -116.96)" gradientUnits="userSpaceOnUse"><stop offset="0" stop-color="#85251d"></stop><stop offset=".13" stop-color="#91261e"></stop><stop offset=".36" stop-color="#b32a24"></stop><stop offset=".5" stop-color="#cc2e28"></stop><stop offset="1" stop-color="#d3472a"></stop></linearGradient><clipPath id="clippath-1"><path class="cls-1" d="M26.14,126.8c-.83-2.07-.86-4.09-.28-5.95-4.14-2.45-7.53-5.06-10.45-7.97,3,5.08,6.6,9.76,10.73,13.92M23.23,88.85c6.8,5.72,15.61,10.51,25.51,14.69,6.96-3.09,14.69-5.87,21.96-8.5.93-.31,1.7-.62,2.63-.93-12.37-4.8-24.74-10.05-35.1-15.93-5.87,3.25-11.13,6.8-14.99,10.67M10.54,50.78c-.42,1.06-.81,2.14-1.19,3.23-1.05,7.67.55,15.38,2.28,19.99,2.16-3.4,4.95-6.65,8.35-9.58-2.63-3.09-4.79-6.19-6.03-9.59-.93-2.32-1.5-6.13-1.5-8.45-.64,1.22-1.4,3.14-1.91,4.4M82.91,58.85c-.93.31-2.01.78-2.94,1.08,9.9,4.02,22.42,9.28,33.4,15.93,16.31-9.73,28.57-22.21,23.02-37.45-3.78-5.87-8.41-11.15-13.71-15.66,12.66,16.6-17.19,27.76-39.77,36.1M112.58,15.56s.01,0,.02.01c0,0-.01,0-.02-.01-1.09.15-3.25.31-8.18.77-16.85,1.55-48.09,4.33-68.49,13.92-2.48,1.08-4.64,2.16-6.65,3.4,2.63,5.1,10.51,9.74,19.79,14.07,10.67-4.33,22.57-8.04,34.17-11.44,22.59-6.48,36.82-11.2,33.82-17.87-1.37-.95-2.77-1.85-4.2-2.69h-.08l-.12-.12s0,0,0,0l-.03-.03s-.01,0-.02,0M34.69,19.53c24.5-13.47,59.14-9.81,73.8-6.19-9.58-4.81-20.62-7.52-31.84-7.52s-26.5,2.53-41.96,13.71"></path></clipPath><linearGradient id="linear-gradient-2" x1="-36.76" y1="1170.66" x2="-36.17" y2="1170.66" gradientTransform="translate(7973.51 253684.54) scale(216.64 -216.64)" gradientUnits="userSpaceOnUse"><stop offset="0" stop-color="#d3e2ed"></stop><stop offset="1" stop-color="#a7b7c1"></stop></linearGradient></defs><g><path class="cls-4" d="M177.35,121.84c-.17,0-.3-.05-.4-.15-.09-.1-.14-.23-.14-.39v-15.25c0-.17.05-.31.14-.41.09-.1.23-.15.4-.15h5.93c1.15,0,2.15.19,3,.56.85.37,1.51.93,1.97,1.67.47.74.7,1.66.7,2.77s-.23,2.02-.7,2.75c-.47.73-1.12,1.29-1.97,1.66-.85.37-1.85.56-3,.56h-4.13v5.84c0,.16-.05.28-.15.39-.1.1-.24.15-.41.15h-1.24ZM179.13,113.51h4.04c1.15,0,2.02-.26,2.59-.77.58-.51.86-1.26.86-2.24s-.28-1.71-.84-2.24-1.43-.79-2.62-.79h-4.04v6.05Z"></path><path class="cls-4" d="M192.51,121.84c-.16,0-.28-.05-.39-.15-.1-.1-.15-.23-.15-.39v-11.05c0-.16.05-.29.15-.4.1-.11.23-.16.39-.16h1.07c.16,0,.29.05.4.16s.16.24.16.4v1.03c.31-.53.74-.93,1.28-1.19s1.2-.4,1.96-.4h.93c.16,0,.28.05.37.15s.14.23.14.39v.96c0,.16-.05.28-.14.37-.09.09-.22.14-.37.14h-1.4c-.84,0-1.5.25-1.99.74-.48.49-.72,1.16-.72,2v6.87c0,.16-.05.28-.16.39-.11.1-.24.15-.4.15h-1.14Z"></path><path class="cls-4" d="M205.91,122.08c-1.6,0-2.88-.49-3.83-1.48-.95-.99-1.47-2.34-1.56-4.05-.02-.2-.02-.46-.02-.78s0-.58.02-.78c.06-1.11.32-2.07.77-2.91.45-.83,1.07-1.48,1.86-1.93s1.71-.68,2.77-.68c1.18,0,2.18.25,2.98.75s1.41,1.21,1.83,2.12c.42.92.63,1.99.63,3.22v.4c0,.17-.05.3-.15.4-.1.09-.23.14-.39.14h-8.08v.21c.03.64.17,1.23.42,1.79.25.55.61,1,1.07,1.34.47.34,1.03.51,1.68.51.56,0,1.03-.08,1.4-.26.37-.17.68-.36.91-.57.23-.21.39-.37.47-.48.14-.2.25-.32.33-.36.08-.04.2-.06.37-.06h1.12c.16,0,.28.04.39.13.1.09.14.21.13.36-.02.23-.14.52-.37.85-.23.33-.57.67-1,.99s-.96.6-1.59.81c-.62.21-1.34.32-2.15.32ZM202.74,114.89h6.4v-.07c0-.7-.13-1.32-.38-1.87-.26-.54-.63-.98-1.11-1.3-.48-.32-1.06-.48-1.73-.48s-1.24.16-1.72.48c-.47.32-.84.75-1.09,1.3s-.37,1.17-.37,1.87v.07Z"></path><path class="cls-4" d="M215.16,121.84c-.16,0-.28-.05-.39-.15-.1-.1-.15-.23-.15-.39v-11.07c0-.16.05-.28.15-.39s.23-.15.39-.15h1.05c.16,0,.28.05.38.15.1.1.15.23.15.39v.82c.36-.48.81-.87,1.35-1.16s1.2-.43,1.96-.43c1.76-.01,3,.7,3.74,2.15.36-.65.88-1.17,1.56-1.56.69-.39,1.46-.58,2.34-.58.81,0,1.54.19,2.21.56.66.37,1.18.94,1.56,1.69.38.76.57,1.7.57,2.84v6.75c0,.16-.05.28-.15.39-.1.1-.23.15-.38.15h-1.1c-.16,0-.28-.05-.39-.15-.1-.1-.15-.23-.15-.39v-6.54c0-.87-.12-1.56-.37-2.06-.25-.5-.58-.85-1-1.05-.42-.2-.88-.3-1.38-.3-.41,0-.82.1-1.24.3-.42.2-.77.55-1.04,1.05-.27.5-.41,1.18-.41,2.06v6.54c0,.16-.05.28-.15.39-.1.1-.23.15-.38.15h-1.1c-.16,0-.28-.05-.39-.15-.1-.1-.15-.23-.15-.39v-6.54c0-.87-.13-1.56-.4-2.06-.26-.5-.61-.85-1.03-1.05-.42-.2-.86-.3-1.33-.3-.41,0-.82.1-1.24.3-.42.2-.77.55-1.04,1.05-.27.5-.41,1.18-.41,2.03v6.56c0,.16-.05.28-.15.39-.1.1-.23.15-.38.15h-1.12Z"></path><path class="cls-4" d="M236.2,107.44c-.16,0-.28-.05-.38-.15-.1-.1-.15-.23-.15-.38v-1.26c0-.16.05-.28.15-.38.1-.1.23-.15.38-.15h1.47c.16,0,.28.05.39.15.1.1.15.23.15.38v1.26c0,.16-.05.28-.15.38s-.23.15-.39.15h-1.47ZM236.39,121.84c-.16,0-.28-.05-.39-.15-.1-.1-.15-.23-.15-.39v-11.07c0-.16.05-.28.15-.39s.23-.15.39-.15h1.12c.16,0,.28.05.37.15.09.1.14.23.14.39v11.07c0,.16-.05.28-.14.39-.09.1-.22.15-.37.15h-1.12Z"></path><path class="cls-4" d="M246.5,122.08c-1,0-1.84-.22-2.53-.67-.69-.44-1.22-1.06-1.58-1.86s-.54-1.7-.54-2.73v-6.58c0-.16.05-.28.15-.39.1-.1.23-.15.38-.15h1.17c.16,0,.28.05.38.15.1.1.15.23.15.39v6.47c0,2.32,1.01,3.48,3.04,3.48.96,0,1.74-.31,2.32-.92.58-.61.88-1.47.88-2.56v-6.47c0-.16.05-.28.15-.39.1-.1.23-.15.39-.15h1.14c.17,0,.3.05.4.15.09.1.14.23.14.39v11.07c0,.16-.05.28-.14.39-.09.1-.23.15-.4.15h-1.07c-.16,0-.28-.05-.39-.15-.1-.1-.15-.23-.15-.39v-1.03c-.42.54-.93.98-1.53,1.31s-1.39.49-2.37.49Z"></path><path class="cls-4" d="M257.03,121.84c-.16,0-.28-.05-.39-.15-.1-.1-.15-.23-.15-.39v-11.07c0-.16.05-.28.15-.39s.23-.15.39-.15h1.05c.16,0,.28.05.38.15.1.1.15.23.15.39v.82c.36-.48.81-.87,1.35-1.16s1.2-.43,1.96-.43c1.76-.01,3,.7,3.74,2.15.36-.65.88-1.17,1.56-1.56.69-.39,1.46-.58,2.34-.58.81,0,1.54.19,2.21.56.66.37,1.18.94,1.56,1.69.38.76.57,1.7.57,2.84v6.75c0,.16-.05.28-.15.39-.1.1-.23.15-.38.15h-1.1c-.16,0-.28-.05-.39-.15-.1-.1-.15-.23-.15-.39v-6.54c0-.87-.12-1.56-.37-2.06-.25-.5-.58-.85-1-1.05-.42-.2-.88-.3-1.38-.3-.41,0-.82.1-1.24.3-.42.2-.77.55-1.04,1.05-.27.5-.41,1.18-.41,2.06v6.54c0,.16-.05.28-.15.39-.1.1-.23.15-.38.15h-1.1c-.16,0-.28-.05-.39-.15-.1-.1-.15-.23-.15-.39v-6.54c0-.87-.13-1.56-.4-2.06-.26-.5-.61-.85-1.03-1.05-.42-.2-.86-.3-1.33-.3-.41,0-.82.1-1.24.3-.42.2-.77.55-1.04,1.05-.27.5-.41,1.18-.41,2.03v6.56c0,.16-.05.28-.15.39-.1.1-.23.15-.38.15h-1.12Z"></path><path class="cls-4" d="M284.47,121.84c-.16,0-.28-.05-.39-.15-.1-.1-.15-.23-.15-.39v-15.51c0-.16.05-.28.15-.39.1-.1.23-.15.39-.15h1.1c.17,0,.3.05.4.15.09.1.14.23.14.39v15.51c0,.16-.05.28-.14.39-.09.1-.23.15-.4.15h-1.1Z"></path><path class="cls-4" d="M290.4,107.44c-.16,0-.28-.05-.38-.15-.1-.1-.15-.23-.15-.38v-1.26c0-.16.05-.28.15-.38.1-.1.23-.15.38-.15h1.47c.16,0,.28.05.39.15.1.1.15.23.15.38v1.26c0,.16-.05.28-.15.38s-.23.15-.39.15h-1.47ZM290.59,121.84c-.16,0-.28-.05-.39-.15-.1-.1-.15-.23-.15-.39v-11.07c0-.16.05-.28.15-.39s.23-.15.39-.15h1.12c.16,0,.28.05.37.15.09.1.14.23.14.39v11.07c0,.16-.05.28-.14.39-.09.1-.22.15-.37.15h-1.12Z"></path><path class="cls-4" d="M304.95,126.28c-.17,0-.3-.05-.4-.15s-.14-.23-.14-.38v-5.42c-.39.5-.89.91-1.51,1.25s-1.37.5-2.28.5c-.86,0-1.6-.15-2.22-.46-.62-.3-1.13-.71-1.53-1.21-.4-.51-.69-1.09-.89-1.75s-.31-1.36-.34-2.09c-.02-.25-.02-.51-.02-.79s0-.54.02-.79c.03-.75.14-1.45.34-2.1.19-.65.49-1.24.89-1.75.4-.51.91-.92,1.53-1.21.62-.3,1.36-.44,2.22-.44.93,0,1.71.17,2.34.51.62.34,1.12.77,1.49,1.29v-1.03c0-.16.05-.28.15-.39.1-.1.23-.15.38-.15h1.07c.16,0,.28.05.39.15.1.1.15.23.15.39v15.51c0,.16-.05.28-.15.38-.1.1-.23.15-.39.15h-1.12ZM301.13,120.19c.75,0,1.36-.17,1.83-.51.47-.34.83-.78,1.07-1.31s.37-1.07.38-1.61c.02-.26.02-.57.02-.91s0-.64-.02-.89c-.02-.58-.14-1.14-.37-1.69-.23-.55-.59-1.01-1.06-1.37-.48-.36-1.09-.54-1.86-.54s-1.42.18-1.89.53c-.47.35-.8.81-1,1.38-.2.57-.32,1.18-.35,1.83-.02.45-.02.9,0,1.35.03.65.15,1.26.35,1.83s.54,1.03,1,1.38c.47.35,1.1.53,1.89.53Z"></path><path class="cls-4" d="M315.09,122.08c-1,0-1.84-.22-2.53-.67-.69-.44-1.22-1.06-1.58-1.86s-.54-1.7-.54-2.73v-6.58c0-.16.05-.28.15-.39.1-.1.23-.15.38-.15h1.17c.16,0,.28.05.38.15.1.1.15.23.15.39v6.47c0,2.32,1.01,3.48,3.04,3.48.96,0,1.74-.31,2.32-.92.58-.61.88-1.47.88-2.56v-6.47c0-.16.05-.28.15-.39.1-.1.23-.15.39-.15h1.14c.17,0,.3.05.4.15.09.1.14.23.14.39v11.07c0,.16-.05.28-.14.39-.09.1-.23.15-.4.15h-1.07c-.16,0-.28-.05-.39-.15-.1-.1-.15-.23-.15-.39v-1.03c-.42.54-.93.98-1.53,1.31s-1.39.49-2.37.49Z"></path><path class="cls-4" d="M325.43,107.44c-.16,0-.28-.05-.38-.15-.1-.1-.15-.23-.15-.38v-1.26c0-.16.05-.28.15-.38.1-.1.23-.15.38-.15h1.47c.16,0,.28.05.39.15.1.1.15.23.15.38v1.26c0,.16-.05.28-.15.38s-.23.15-.39.15h-1.47ZM325.62,121.84c-.16,0-.28-.05-.39-.15-.1-.1-.15-.23-.15-.39v-11.07c0-.16.05-.28.15-.39s.23-.15.39-.15h1.12c.16,0,.28.05.37.15.09.1.14.23.14.39v11.07c0,.16-.05.28-.14.39-.09.1-.22.15-.37.15h-1.12Z"></path><path class="cls-4" d="M335.64,122.08c-.86,0-1.6-.15-2.22-.46-.62-.3-1.13-.72-1.53-1.24-.4-.52-.69-1.12-.89-1.79-.19-.67-.31-1.38-.34-2.12-.02-.25-.02-.48-.02-.7s0-.45.02-.7c.03-.73.14-1.43.34-2.1.2-.67.49-1.27.89-1.8.4-.53.91-.95,1.53-1.25.62-.3,1.36-.46,2.22-.46.92,0,1.68.16,2.29.49.61.33,1.11.73,1.5,1.21v-5.37c0-.16.05-.28.15-.39s.23-.15.39-.15h1.12c.16,0,.28.05.39.15.1.1.15.23.15.39v15.51c0,.16-.05.28-.15.39-.1.1-.23.15-.39.15h-1.05c-.17,0-.3-.05-.4-.15-.09-.1-.14-.23-.14-.39v-.98c-.39.5-.9.91-1.52,1.25-.62.33-1.4.5-2.34.5ZM336.13,120.19c.78,0,1.4-.18,1.87-.54.47-.36.82-.81,1.05-1.37s.36-1.12.37-1.69c.01-.25.02-.55.02-.9s0-.65-.02-.9c-.02-.54-.14-1.08-.39-1.61s-.6-.97-1.07-1.31c-.48-.34-1.09-.51-1.83-.51-.79,0-1.42.18-1.89.53-.47.35-.8.81-1,1.38-.2.57-.32,1.18-.35,1.83-.02.45-.02.9,0,1.35.03.65.15,1.26.35,1.83s.54,1.03,1,1.38c.47.35,1.1.53,1.89.53Z"></path><path class="cls-4" d="M349.77,122.08c-.87,0-1.62-.11-2.24-.33-.62-.22-1.13-.48-1.52-.79-.39-.31-.68-.62-.88-.93s-.3-.56-.32-.75c-.02-.17.04-.3.16-.4.12-.09.25-.14.37-.14h1.03c.09,0,.17.01.22.04s.13.09.22.2c.2.22.43.44.68.65.25.22.56.4.92.54.37.14.82.21,1.37.21.79,0,1.45-.15,1.96-.46s.77-.75.77-1.34c0-.39-.1-.7-.32-.93-.21-.23-.58-.44-1.12-.63-.54-.19-1.27-.38-2.21-.58-.93-.22-1.67-.49-2.22-.81-.55-.32-.93-.7-1.17-1.14s-.35-.95-.35-1.51.17-1.13.51-1.67.84-.98,1.51-1.32c.66-.34,1.49-.51,2.49-.51.81,0,1.5.1,2.08.3.58.2,1.05.46,1.42.76.37.3.65.6.84.9.19.3.29.54.3.75.01.16-.03.29-.14.39-.11.1-.23.15-.37.15h-.98c-.11,0-.2-.02-.27-.07s-.14-.1-.2-.16c-.16-.2-.34-.4-.55-.61s-.48-.37-.82-.5c-.33-.13-.77-.2-1.32-.2-.78,0-1.36.16-1.75.49-.39.33-.58.74-.58,1.24,0,.3.09.56.26.79.17.23.5.44.98.63.48.19,1.2.39,2.15.61,1.03.2,1.84.48,2.43.82.59.34,1.01.74,1.26,1.19.25.45.37.97.37,1.56,0,.65-.19,1.25-.57,1.8s-.94.98-1.68,1.3c-.74.32-1.65.48-2.74.48Z"></path></g><g><polygon class="cls-4" points="207.53 51.17 187.01 51.17 187.01 93.37 176.75 93.37 176.75 51.17 156.22 51.17 156.22 40.62 207.53 40.62 207.53 51.17"></polygon><g><path class="cls-4" d="M215.53,81.24c0-1.58.8-2.37,2.39-2.37h16.42v4.84h-16.42c-1.6,0-2.39-.82-2.39-2.46M243.75,93.37v-24.18c0-9.67-4.7-14.51-14.11-14.51h-21.81v9.67h21.81c3.14,0,4.7,1.58,4.7,4.75v.09h-16.42c-7.87,0-11.8,3.96-11.8,11.87s3.93,12.31,11.8,12.31h25.83Z"></path><path class="cls-4" d="M258.29,93.37v-29.01h4.7c3.14,0,4.7,1.61,4.7,4.84v24.18h9.41v-24.09c0-3.28,1.57-4.92,4.7-4.92s4.7,1.61,4.7,4.84v24.18h9.41v-24.18c0-9.67-4.7-14.51-14.11-14.51-.8,0-1.51.01-2.14.04-.63.03-1.28.13-1.97.31-.68.17-1.44.47-2.27.88-.83.41-1.84.97-3.04,1.67-1.2-.7-2.21-1.26-3.04-1.67-.83-.41-1.58-.71-2.27-.88-.68-.17-1.34-.28-1.97-.31-.63-.03-1.34-.04-2.14-.04h-14.11s0,38.69,0,38.69h9.41Z"></path><path class="cls-4" d="M310.46,81.24c0-1.58.8-2.37,2.39-2.37h16.42v4.84h-16.42c-1.6,0-2.39-.82-2.39-2.46M338.68,93.37v-24.18c0-9.67-4.7-14.51-14.11-14.51h-21.81v9.67h21.81c3.14,0,4.7,1.58,4.7,4.75v.09h-16.42c-7.87,0-11.8,3.96-11.8,11.87s3.93,12.31,11.8,12.31h25.83Z"></path><path class="cls-4" d="M381.44,81.33c0,7.97-3.91,11.99-11.72,12.05h-23.35v-9.67h23.35c1.54,0,2.31-.79,2.31-2.37s-.77-2.46-2.31-2.46h-14.2c-7.81-.06-11.71-4.16-11.71-12.31s3.91-11.87,11.71-11.87h23.35v9.67h-23.35c-1.48,0-2.25.79-2.31,2.37.06,1.64.83,2.46,2.31,2.46h14.2c7.81,0,11.72,4.05,11.72,12.13"></path><path class="cls-4" d="M395.98,93.37v-29.01h14.11c3.14,0,4.7,1.61,4.7,4.84v24.18h9.41v-24.18c0-9.67-4.7-14.51-14.11-14.51h-14.11v-14.07h-9.41v52.75h9.41Z"></path></g><path class="cls-4" d="M438.73,50.29h-9.41v-9.67h9.41v9.67ZM438.73,93.37h-9.41v-38.69h9.41v38.69Z"></path></g><g><g class="cls-6"><rect class="cls-3" x="-12.55" y="3.25" width="178.06" height="167.58" transform="translate(-27.84 36.62) rotate(-22.9)"></rect></g><g class="cls-5"><rect class="cls-2" x="8.31" y="5.81" width="133.63" height="120.99"></rect></g></g></svg> 