<svg width="122" height="32" viewBox="0 0 122 32" fill="none" xmlns="http://www.w3.org/2000/svg">
<path d="M65.7363 32L54.1602 0H58.7892L68.4299 27.12H69.506L79.1467 0H83.7757L72.1996 32H65.7363Z" fill="#1F1F1F"/>
<path fill-rule="evenodd" clip-rule="evenodd" d="M87.8112 32V0H101.814C103.576 0 105.15 0.392727 106.551 1.16364C107.952 1.94182 109.035 3.01091 109.808 4.36364C110.581 5.72364 110.964 7.25091 110.964 8.94545C110.964 10.0655 110.783 11.0764 110.422 11.9855C110.061 12.8873 109.613 13.6291 109.079 14.2109C108.537 14.7927 108.003 15.2073 107.461 15.4618V15.7309C108.501 16.1673 109.433 16.9964 110.263 18.2255C111.086 19.4545 111.498 20.9745 111.498 22.7782C111.498 24.48 111.094 26.0291 110.285 27.44C109.476 28.8509 108.371 29.9636 106.97 30.7782C105.569 31.5927 104.024 32 102.341 32H87.8112ZM101.814 13.8327C102.782 13.8327 103.634 13.6364 104.37 13.2364C105.107 12.8364 105.67 12.2691 106.067 11.5273C106.465 10.7855 106.659 9.92727 106.659 8.95273C106.659 7.46909 106.219 6.28364 105.338 5.40364C104.457 4.51636 103.28 4.07273 101.814 4.07273H92.1225V13.8327H101.814ZM102.355 27.9345C103.72 27.9345 104.869 27.4473 105.8 26.4727C106.732 25.4982 107.201 24.2691 107.201 22.7855C107.201 21.3018 106.732 20.0727 105.8 19.0982C104.869 18.1236 103.72 17.6364 102.355 17.6364H92.1225V27.9418H102.355V27.9345Z" fill="#1F1F1F"/>
<path d="M117.687 0V32H121.999V0H117.687Z" fill="#1F1F1F"/>
<path d="M21.6647 21.8182L0 0H43.3293L21.6647 21.8182Z" fill="#FFB200"/>
<path d="M0 10.1816L21.6647 31.9998H0V10.1816Z" fill="#FF0099"/>
<path d="M43.3287 10.1816L21.6641 31.9998H43.3287V10.1816Z" fill="#FF0099"/>
</svg>
