<svg width="314" height="398" viewBox="0 0 314 398" fill="none" xmlns="http://www.w3.org/2000/svg">
<path d="M33.3346 199.305C33.4716 199.79 36.0364 199.527 38.2663 201.114C40.8844 202.972 40.8844 204.986 43.6014 204.32C46.6761 203.564 43.8297 190.616 48.3961 183.094C60.3905 163.339 95.2549 150.958 99.007 148.138C106.519 142.507 110.994 137.714 113.619 129.97C116.032 122.834 117.273 110.626 115.187 97.1112C114.076 89.9097 117.402 90.8387 118.916 93.1652C120.324 95.3355 129.609 112.64 127.174 128.507C123.544 152.167 103.117 155.701 100.552 155.545C85.6731 154.649 57.468 174.585 51.3262 185.79C48.1526 191.577 51.3795 204.238 45.8466 207.148C40.8844 209.754 37.7108 207.074 35.0927 204.172C31.8125 200.53 20.6857 208.414 17.2381 209.31C13.174 210.362 2.43541 211.464 2.61806 211.003C6.44622 201.426 0 192.901 0 192.178C0 185.478 3.09753 176.287 6.01241 170.392C9.93951 162.451 25.1228 143.765 28.6922 121.47C32.7106 96.3384 41.988 87.5996 44.6821 83.892C45.8313 82.3054 44.9333 80.1844 43.5938 78.458C37.1704 70.1878 28.3421 70.1138 29.4456 65.9376C30.4122 62.2711 40.4354 64.8524 41.615 63.1425C43.3198 60.6515 23.1744 31.5414 25.6175 29.2642C28.5323 26.5431 50.139 54.9216 52.3765 53.9515C54.2639 53.1376 52.993 42.1381 55.5425 41.2831C60.1318 39.7376 59.1424 52.1922 68.1305 57.9058C72.1946 60.4953 76.3653 54.7736 77.1644 51.9127C78.169 48.312 79.166 38.0194 80.0945 33.7446C81.472 27.4227 84.288 21.7338 88.451 17.089C92.9108 12.1154 107.325 -3.01106 108.855 0.532147C109.639 2.34074 105.43 4.39597 104.372 9.97795C103.315 15.5599 104.175 23.9288 102.15 30.0616C100.567 34.8626 92.9032 42.952 90.7722 45.9855C89.9427 47.1693 89.9427 49.4054 91.5942 49.4218C93.9306 49.4465 123.422 49.1998 128.453 49.3314C137.41 49.578 177.732 49.2903 186.035 49.4465C216.759 50.0466 269.318 50.9427 294.532 88.4546C324.823 133.522 312.28 186.242 299.959 205.273C280.696 235.033 256.791 235.625 246.144 238.009C238.152 239.793 198.448 240.401 195.814 239.999V254.04H236.425C236.425 254.04 236.569 303.71 236.379 303.25C234.636 299.131 223.951 262.639 195.814 264.258C195.814 264.258 195.814 388.599 195.814 393.491H253.556V397.33C245.641 397.141 176.308 397.363 172.678 397.33C168.302 397.289 161.049 396.705 151.551 393.795C137.616 389.512 99.5625 363.263 107.988 313.888C115.758 268.369 170.517 256.703 170.517 256.703C170.441 247.389 170.631 185.642 170.517 176.007C169.976 129.641 170.486 105.883 159.846 88.1669C152.51 75.9506 135.652 61.8682 130.096 59.0649C114.868 51.3784 99.5625 51.7565 96.4269 51.8223C87.4996 52.0114 87.6519 50.2028 87.7736 47.3337C87.9106 44.1275 90.7646 41.9161 92.9793 39.6965C98.8624 33.8103 100.841 27.472 101.062 18.1331C101.153 14.3926 102.348 9.29562 102.835 6.54162C102.949 5.89217 93.6034 14.9105 88.4282 21.7009C83.2529 28.4914 82.294 35.2243 81.4644 42.4751C80.1097 54.3708 81.6014 58.7443 64.5764 69.8836C59.5457 73.172 45.6487 87.3448 39.0426 99.298C35.009 106.598 33.7761 119.612 28.4182 135.231C22.01 153.926 16.0433 158.842 8.21189 174.741C5.75365 179.723 2.65612 189.341 5.70799 195.302C7.09313 198.014 7.36711 200.053 7.87702 203.185C8.18145 205.051 8.99579 205.66 10.4951 205.668C17.3371 205.701 25.3511 202.265 30.3513 195.836C35.0623 189.777 35.9679 183.513 33.7989 176.344C33.7228 176.098 38.8295 182.156 37.726 189.078C37.0106 193.575 33.0454 198.277 33.3499 199.338L33.3346 199.305ZM195.807 227.388C209.125 227.807 227.482 227.314 237.034 223.244C276.198 206.564 274.668 106.162 243.906 83.0863C229.18 72.0375 220.153 68.5436 195.807 64.5071C195.472 64.4496 195.807 227.388 195.807 227.388ZM170.509 267.226C162.571 268.805 151.3 284.161 150.417 319.749C149.154 370.538 169.329 384.538 170.509 383.675V267.226Z" fill="white"/>
<path d="M78.4353 105.653C78.1842 105.258 77.6743 105.184 77.3242 105.472C77.3014 105.488 77.2785 105.513 77.2557 105.529C70.467 111.284 58.876 112.83 51.0903 108.686C49.1191 107.519 47.7568 110.865 49.8574 111.662C56.9885 113.775 64.9341 113.479 71.8445 110.552C68.3056 114.441 65.4668 119.053 63.9447 124.298C63.4348 126.542 66.6008 127.307 67.0422 125.062C68.6328 117.852 73.0166 111.539 78.2299 106.828C78.2451 106.82 78.2603 106.804 78.2755 106.795C78.6028 106.524 78.6865 106.023 78.443 105.653H78.4353Z" fill="white"/>
<path d="M16.7737 184.581C18.7525 188.092 19.2852 192.745 17.0629 196.222C16.3704 197.168 14.97 200.415 13.6077 199.223C13.2728 198.853 13.2804 198.277 13.5772 197.891C14.6199 196.37 15.5484 194.019 15.6245 192.177C15.6245 190.402 14.6047 188.322 13.5772 186.965C11.8648 184.598 15.3201 182.008 16.7737 184.581Z" fill="white"/>
</svg>
